<svg width="20" height="20" viewBox="0 0 20 20" fill="none" xmlns="http://www.w3.org/2000/svg">
<path d="M9.22 15.95C9.47 15.98 9.73 16 10 16C10.27 16 10.53 15.98 10.78 15.94L12.1 17.63C12.22 17.78 12.44 17.82 12.61 17.73L15.38 16.13C15.56 16.03 15.62 15.82 15.56 15.64L14.76 13.65C15.08 13.23 15.34 12.79 15.54 12.3L17.66 12C17.86 11.97 18 11.8 18 11.6L18 8.40001C18 8.20001 17.86 8.04001 17.66 8.01001L15.54 7.71001C15.34 7.22001 15.07 6.77001 14.76 6.36001L15.56 4.37001C15.63 4.19001 15.56 3.98001 15.38 3.88001L12.61 2.28001C12.43 2.18001 12.22 2.22001 12.1 2.38001L10.78 4.07001C10.53 4.03001 10.26 4.00001 10 4.00001C9.74 4.00001 9.47 4.02001 9.22 4.06001L7.9 2.37001C7.78 2.22001 7.56 2.18001 7.39 2.27001L4.62 3.87001C4.44 3.97001 4.38 4.18001 4.44 4.36001L5.24 6.35001C4.92 6.77001 4.66 7.21001 4.46 7.70001L2.34 8.00001C2.14 8.04001 2 8.20001 2 8.40001L2 11.6C2 11.8 2.14 11.97 2.34 11.99L4.46 12.29C4.66 12.78 4.93 13.23 5.24 13.64L4.44 15.63C4.37 15.81 4.44 16.02 4.62 16.12L7.39 17.72C7.57 17.82 7.78 17.78 7.9 17.62L9.22 15.95ZM7 10C7 8.35001 8.35 7.00001 10 7.00001C11.65 7.00001 13 8.35001 13 10C13 11.65 11.65 13 10 13C8.35 13 7 11.65 7 10Z" fill="#050237"/>
</svg>
